{
  "accessors": [
    {
      "bufferView": 2,
      "componentType": 5126,
      "count": 18686,
      "max": [
        12.074560165405273,
        24.503582000732422,
        11.898026466369629
      ],
      "min": [
        -12.074560165405273,
        -0.0040996018797159195,
        -11.898026466369629
      ],
      "type": "VEC3"
    },
    {
      "bufferView": 2,
      "byteOffset": 224232,
      "componentType": 5126,
      "count": 18686,
      "max": [
        0.99963068962097168,
        1,
        0.9999658465385437
      ],
      "min": [
        -0.99993711709976196,
        -1,
        -0.99981784820556641
      ],
      "type": "VEC3"
    },
    {
      "bufferView": 3,
      "componentType": 5126,
      "count": 18686,
      "max": [
        0.99998927116394043,
        0.99985289573669434,
        0.99999833106994629,
        1
      ],
      "min": [
        -0.99999505281448364,
        -0.99927955865859985,
        -0.99999403953552246,
        -1
      ],
      "type": "VEC4"
    },
    {
      "bufferView": 3,
      "byteOffset": 298976,
      "componentType": 5126,
      "count": 18686,
      "max": [
        1,
        1,
        1,
        1
      ],
      "min": [
        1,
        1,
        1,
        1
      ],
      "type": "VEC4"
    },
    {
      "bufferView": 1,
      "componentType": 5126,
      "count": 18686,
      "max": [
        0.7171485424041748,
        0.99950391054153442
      ],
      "min": [
        0.00054267048835754395,
        0.44726037979125977
      ],
      "type": "VEC2"
    },
    {
      "bufferView": 0,
      "componentType": 5125,
      "count": 99711,
      "max": [
        18685
      ],
      "min": [
        0
      ],
      "type": "SCALAR"
    },
    {
      "bufferView": 2,
      "byteOffset": 448464,
      "componentType": 5126,
      "count": 28,
      "max": [
        100,
        100,
        100
      ],
      "min": [
        -100,
        -100,
        -100
      ],
      "type": "VEC3"
    },
    {
      "bufferView": 2,
      "byteOffset": 448800,
      "componentType": 5126,
      "count": 28,
      "max": [
        1,
        1,
        1
      ],
      "min": [
        -1,
        -1,
        -1
      ],
      "type": "VEC3"
    },
    {
      "bufferView": 3,
      "byteOffset": 597952,
      "componentType": 5126,
      "count": 28,
      "max": [
        0.68425381183624268,
        0.99973213672637939,
        0.99996590614318848,
        -1
      ],
      "min": [
        -0.37311232089996338,
        -0.99833345413208008,
        -0.78489965200424194,
        -1
      ],
      "type": "VEC4"
    },
    {
      "bufferView": 3,
      "byteOffset": 598400,
      "componentType": 5126,
      "count": 28,
      "max": [
        1,
        1,
        1,
        1
      ],
      "min": [
        1,
        1,
        1,
        1
      ],
      "type": "VEC4"
    },
    {
      "bufferView": 1,
      "byteOffset": 149488,
      "componentType": 5126,
      "count": 28,
      "max": [
        0.86354506015777588,
        0.99983537197113037
      ],
      "min": [
        0.00011357665061950684,
        0.0001468658447265625
      ],
      "type": "VEC2"
    },
    {
      "bufferView": 0,
      "byteOffset": 398844,
      "componentType": 5125,
      "count": 36,
      "max": [
        27
      ],
      "min": [
        0
      ],
      "type": "SCALAR"
    }
  ],
  "asset": {
    "extras": {
      "author": "Romario Negara (https://sketchfab.com/romarionegara)",
      "license": "CC-BY-4.0 (http://creativecommons.org/licenses/by/4.0/)",
      "source": "https://sketchfab.com/models/619c9ee3da334c278deecb1bc43a7c45",
      "title": "Hamburger"
    },
    "generator": "Sketchfab-3.20.4",
    "version": "2.0"
  },
  "bufferViews": [
    {
      "buffer": 0,
      "byteLength": 398988,
      "byteOffset": 0,
      "name": "floatBufferViews",
      "target": 34963
    },
    {
      "buffer": 0,
      "byteLength": 149712,
      "byteOffset": 398988,
      "byteStride": 8,
      "name": "floatBufferViews",
      "target": 34962
    },
    {
      "buffer": 0,
      "byteLength": 449136,
      "byteOffset": 548700,
      "byteStride": 12,
      "name": "floatBufferViews",
      "target": 34962
    },
    {
      "buffer": 0,
      "byteLength": 598848,
      "byteOffset": 997836,
      "byteStride": 16,
      "name": "floatBufferViews",
      "target": 34962
    }
  ],
  "buffers": [
    {
      "byteLength": 1596684,
      "uri": "scene.bin"
    }
  ],
  "images": [
    {
      "uri": "textures/Material_73_baseColor.png"
    },
    {
      "uri": "textures/Material_75_baseColor.png"
    }
  ],
  "materials": [
    {
      "doubleSided": true,
      "emissiveFactor": [
        0,
        0,
        0
      ],
      "name": "Material_73",
      "pbrMetallicRoughness": {
        "baseColorFactor": [
          1,
          1,
          1,
          1
        ],
        "baseColorTexture": {
          "index": 0,
          "texCoord": 0
        },
        "metallicFactor": 0,
        "roughnessFactor": 0
      }
    },
    {
      "doubleSided": true,
      "emissiveFactor": [
        0,
        0,
        0
      ],
      "name": "Material_75",
      "pbrMetallicRoughness": {
        "baseColorFactor": [
          1,
          1,
          1,
          1
        ],
        "baseColorTexture": {
          "index": 1,
          "texCoord": 0
        },
        "metallicFactor": 0,
        "roughnessFactor": 0.92366622570000001
      }
    }
  ],
  "meshes": [
    {
      "name": "node_id29_Material_73_0",
      "primitives": [
        {
          "attributes": {
            "COLOR_0": 3,
            "NORMAL": 1,
            "POSITION": 0,
            "TANGENT": 2,
            "TEXCOORD_0": 4
          },
          "indices": 5,
          "material": 0,
          "mode": 4
        }
      ]
    },
    {
      "name": "root_Material_75_0",
      "primitives": [
        {
          "attributes": {
            "COLOR_0": 9,
            "NORMAL": 7,
            "POSITION": 6,
            "TANGENT": 8,
            "TEXCOORD_0": 10
          },
          "indices": 11,
          "material": 1,
          "mode": 4
        }
      ]
    }
  ],
  "nodes": [
    {
      "children": [
        1
      ],
      "name": "RootNode (gltf orientation matrix)",
      "rotation": [
        -0.70710678118654746,
        -0,
        -0,
        0.70710678118654757
      ]
    },
    {
      "children": [
        2
      ],
      "name": "RootNode (model correction matrix)"
    },
    {
      "children": [
        3
      ],
      "matrix": [
        1,
        0,
        0,
        0,
        0,
        0,
        1,
        0,
        0,
        -1,
        0,
        0,
        0,
        0,
        0,
        1
      ],
      "name": "Hamburger.fbx"
    },
    {
      "children": [
        4
      ],
      "name": "RootNode"
    },
    {
      "children": [
        5,
        7
      ],
      "name": "root"
    },
    {
      "children": [
        6
      ],
      "matrix": [
        0.021622752770781517,
        0,
        0,
        0,
        0,
        0.026844825595617294,
        0,
        0,
        0,
        0,
        0.020891411229968071,
        0,
        0.021632568910717964,
        -0.107533298432827,
        0.25600001215934753,
        1
      ],
      "name": "node_id29"
    },
    {
      "mesh": 0,
      "name": "node_id29_Material_73_0"
    },
    {
      "children": [
        8
      ],
      "name": "root"
    },
    {
      "children": [
        9
      ],
      "matrix": [
        0.0076230708509683609,
        0,
        -0,
        0,
        0,
        0.0009311751346103847,
        0,
        0,
        0,
        0,
        0.0038034019526094198,
        0,
        0.02872607484459877,
        -0.20076087117195129,
        0.25173133611679077,
        1
      ],
      "name": ""
    },
    {
      "mesh": 1,
      "name": "root_Material_75_0"
    }
  ],
  "samplers": [
    {
      "magFilter": 9729,
      "minFilter": 9987,
      "wrapS": 10497,
      "wrapT": 10497
    }
  ],
  "scene": 0,
  "scenes": [
    {
      "name": "OSG_Scene",
      "nodes": [
        0
      ]
    }
  ],
  "textures": [
    {
      "sampler": 0,
      "source": 0
    },
    {
      "sampler": 0,
      "source": 1
    }
  ]
}

