{
  "accessors": [
    {
      "bufferView": 2,
      "componentType": 5126,
      "count": 659,
      "max": [
        0.98474997282028198,
        1.0056699514389038,
        8.6477298736572266
      ],
      "min": [
        -1.0266000032424927,
        -1.0056699514389038,
        -0.13811999559402466
      ],
      "type": "VEC3"
    },
    {
      "bufferView": 2,
      "byteOffset": 7908,
      "componentType": 5126,
      "count": 659,
      "max": [
        0.9987558126449585,
        0.9987558126449585,
        0.99995142221450806
      ],
      "min": [
        -0.9987558126449585,
        -0.9987558126449585,
        -0.99975001811981201
      ],
      "type": "VEC3"
    },
    {
      "bufferView": 3,
      "componentType": 5126,
      "count": 659,
      "max": [
        1,
        0.999481201171875,
        0.95506370067596436,
        1
      ],
      "min": [
        -1,
        -0.99992752075195312,
        -0.99224269390106201,
        -1
      ],
      "type": "VEC4"
    },
    {
      "bufferView": 2,
      "byteOffset": 15816,
      "componentType": 5126,
      "count": 659,
      "max": [
        1,
        1,
        1
      ],
      "min": [
        1,
        1,
        1
      ],
      "type": "VEC3"
    },
    {
      "bufferView": 1,
      "componentType": 5126,
      "count": 659,
      "max": [
        0.70965999364852905,
        0.90134000778198242
      ],
      "min": [
        0.29376998543739319,
        0.18726000189781189
      ],
      "type": "VEC2"
    },
    {
      "bufferView": 0,
      "componentType": 5125,
      "count": 2880,
      "max": [
        658
      ],
      "min": [
        0
      ],
      "type": "SCALAR"
    }
  ],
  "asset": {
    "extras": {
      "author": "mt247 (https://sketchfab.com/mt247)",
      "license": "CC-BY-4.0 (http://creativecommons.org/licenses/by/4.0/)",
      "source": "https://sketchfab.com/models/4f2ae4e583b941de9f9b340d5b55c772",
      "title": "Bottiglia Heineken"
    },
    "generator": "Sketchfab-3.34.6",
    "version": "2.0"
  },
  "bufferViews": [
    {
      "buffer": 0,
      "byteLength": 11520,
      "byteOffset": 0,
      "name": "floatBufferViews",
      "target": 34963
    },
    {
      "buffer": 0,
      "byteLength": 5272,
      "byteOffset": 11520,
      "byteStride": 8,
      "name": "floatBufferViews",
      "target": 34962
    },
    {
      "buffer": 0,
      "byteLength": 23724,
      "byteOffset": 16792,
      "byteStride": 12,
      "name": "floatBufferViews",
      "target": 34962
    },
    {
      "buffer": 0,
      "byteLength": 10544,
      "byteOffset": 40516,
      "byteStride": 16,
      "name": "floatBufferViews",
      "target": 34962
    }
  ],
  "buffers": [
    {
      "byteLength": 51060,
      "uri": "scene.bin"
    }
  ],
  "images": [
    {
      "uri": "textures/Materiale_baseColor.jpeg"
    }
  ],
  "materials": [
    {
      "doubleSided": true,
      "emissiveFactor": [
        0,
        0,
        0
      ],
      "name": "Materiale",
      "pbrMetallicRoughness": {
        "baseColorFactor": [
          1,
          1,
          1,
          1
        ],
        "baseColorTexture": {
          "index": 0,
          "texCoord": 0
        },
        "metallicFactor": 0,
        "roughnessFactor": 0.59999999999999998
      }
    }
  ],
  "meshes": [
    {
      "name": "bottiglia heineken_0",
      "primitives": [
        {
          "attributes": {
            "COLOR_0": 3,
            "NORMAL": 1,
            "POSITION": 0,
            "TANGENT": 2,
            "TEXCOORD_0": 4
          },
          "indices": 5,
          "material": 0,
          "mode": 4
        }
      ]
    }
  ],
  "nodes": [
    {
      "children": [
        1
      ],
      "name": "RootNode (gltf orientation matrix)",
      "rotation": [
        -0.70710678118654746,
        -0,
        -0,
        0.70710678118654757
      ]
    },
    {
      "children": [
        2
      ],
      "name": "RootNode (model correction matrix)"
    },
    {
      "children": [
        3,
        5
      ],
      "name": "Root"
    },
    {
      "children": [
        4
      ],
      "matrix": [
        -0.29086000000000006,
        0.95517000000000007,
        -0.05519000000000001,
        0,
        -0.77110000000000001,
        -0.19988000000000003,
        0.60452000000000006,
        0,
        0.56639000000000006,
        0.21839000000000003,
        0.7946700000000001,
        0,
        4.0762500000000008,
        1.00545,
        5.9038600000000008,
        1
      ],
      "name": "Lamp"
    },
    {
      "name": "Lamp"
    },
    {
      "children": [
        6
      ],
      "matrix": [
        1.0819199999999998,
        0,
        0,
        0,
        0,
        1.0819199999999998,
        0,
        0,
        0,
        0,
        1.0819199999999998,
        0,
        -0.00047000000000000015,
        -7.2103700000000002,
        -4.6029699999999991,
        1
      ],
      "name": "bottiglia heineken"
    },
    {
      "mesh": 0,
      "name": "bottiglia heineken_0"
    }
  ],
  "samplers": [
    {
      "magFilter": 9729,
      "minFilter": 9987,
      "wrapS": 10497,
      "wrapT": 10497
    }
  ],
  "scene": 0,
  "scenes": [
    {
      "name": "OSG_Scene",
      "nodes": [
        0
      ]
    }
  ],
  "textures": [
    {
      "sampler": 0,
      "source": 0
    }
  ]
}

