{
  "accessors": [
    {
      "bufferView": 3,
      "componentType": 5126,
      "count": 1576,
      "max": [
        2.7551052570343018,
        6.7750930786132812,
        2.8332324028015137
      ],
      "min": [
        -2.6810221672058105,
        0,
        -2.8332324028015137
      ],
      "type": "VEC3"
    },
    {
      "bufferView": 3,
      "byteOffset": 18912,
      "componentType": 5126,
      "count": 1576,
      "max": [
        0.99937480688095093,
        0.99963504076004028,
        0.99888336658477783
      ],
      "min": [
        -0.99955010414123535,
        -0.99995416402816772,
        -0.99994397163391113
      ],
      "type": "VEC3"
    },
    {
      "bufferView": 4,
      "componentType": 5126,
      "count": 1576,
      "max": [
        0.99987435340881348,
        0.99941426515579224,
        0.99923056364059448,
        1
      ],
      "min": [
        -0.99968898296356201,
        -0.99984544515609741,
        -0.99937808513641357,
        -1
      ],
      "type": "VEC4"
    },
    {
      "bufferView": 2,
      "componentType": 5126,
      "count": 1576,
      "max": [
        1,
        1
      ],
      "min": [
        0,
        0
      ],
      "type": "VEC2"
    },
    {
      "bufferView": 1,
      "componentType": 5125,
      "count": 8778,
      "max": [
        1575
      ],
      "min": [
        0
      ],
      "type": "SCALAR"
    },
    {
      "bufferView": 3,
      "byteOffset": 37824,
      "componentType": 5126,
      "count": 2179,
      "max": [
        2.4113476276397705,
        4.7242240905761719,
        2.4413783550262451
      ],
      "min": [
        -2.3530268669128418,
        1.960340142250061,
        -1.8733129501342773
      ],
      "type": "VEC3"
    },
    {
      "bufferView": 3,
      "byteOffset": 63972,
      "componentType": 5126,
      "count": 2179,
      "max": [
        0.99941915273666382,
        0.99510520696640015,
        0.99830424785614014
      ],
      "min": [
        -0.99996119737625122,
        -0.99502080678939819,
        -0.99889534711837769
      ],
      "type": "VEC3"
    },
    {
      "bufferView": 4,
      "byteOffset": 25216,
      "componentType": 5126,
      "count": 2179,
      "max": [
        0.99823755025863647,
        0.9932786226272583,
        0.99966508150100708,
        1
      ],
      "min": [
        -0.99992877244949341,
        -0.99841338396072388,
        -0.99965769052505493,
        -1
      ],
      "type": "VEC4"
    },
    {
      "bufferView": 1,
      "byteOffset": 35112,
      "componentType": 5125,
      "count": 10512,
      "max": [
        2178
      ],
      "min": [
        0
      ],
      "type": "SCALAR"
    },
    {
      "bufferView": 3,
      "byteOffset": 90120,
      "componentType": 5126,
      "count": 140,
      "max": [
        -1.1295300722122192,
        3.2217674255371094,
        -1.6124777793884277
      ],
      "min": [
        -3.4732270240783691,
        1.5146464109420776,
        -2.6443653106689453
      ],
      "type": "VEC3"
    },
    {
      "bufferView": 3,
      "byteOffset": 91800,
      "componentType": 5126,
      "count": 140,
      "max": [
        0.96359103918075562,
        0.99937605857849121,
        0.98973459005355835
      ],
      "min": [
        -0.9779161810874939,
        -0.99908840656280518,
        -0.99991923570632935
      ],
      "type": "VEC3"
    },
    {
      "bufferView": 4,
      "byteOffset": 60080,
      "componentType": 5126,
      "count": 140,
      "max": [
        0.77407330274581909,
        0.97959458827972412,
        0.98898637294769287,
        1
      ],
      "min": [
        -0.99962145090103149,
        -0.70644974708557129,
        -0.9861304759979248,
        -1
      ],
      "type": "VEC4"
    },
    {
      "bufferView": 1,
      "byteOffset": 77160,
      "componentType": 5125,
      "count": 720,
      "max": [
        139
      ],
      "min": [
        0
      ],
      "type": "SCALAR"
    },
    {
      "bufferView": 5,
      "componentType": 5126,
      "count": 6,
      "max": [
        1,
        0,
        1,
        0,
        0.98497611284255981,
        1,
        0,
        0,
        0,
        0.98497611284255981,
        1,
        0,
        1.6999169588088989,
        1.5709555149078369,
        2.0019063949584961,
        1
      ],
      "min": [
        2.7902101727592067e-16,
        -1.2313068972871386e-17,
        0,
        0,
        0,
        0.17269061505794525,
        -2.7270270735477522e-16,
        0,
        -0.17269061505794525,
        0,
        6.0312392056646318e-17,
        0,
        -0.59971165657043457,
        -2.3213448524475098,
        0,
        1
      ],
      "type": "MAT4"
    },
    {
      "bufferView": 0,
      "componentType": 5123,
      "count": 1576,
      "max": [
        4,
        2,
        2,
        2
      ],
      "min": [
        1,
        2,
        2,
        2
      ],
      "type": "VEC4"
    },
    {
      "bufferView": 4,
      "byteOffset": 62320,
      "componentType": 5126,
      "count": 1576,
      "max": [
        1,
        0,
        0,
        0
      ],
      "min": [
        1,
        0,
        0,
        0
      ],
      "type": "VEC4"
    },
    {
      "bufferView": 0,
      "byteOffset": 12608,
      "componentType": 5123,
      "count": 2179,
      "max": [
        4,
        3,
        3,
        3
      ],
      "min": [
        3,
        3,
        3,
        3
      ],
      "type": "VEC4"
    },
    {
      "bufferView": 4,
      "byteOffset": 87536,
      "componentType": 5126,
      "count": 2179,
      "max": [
        1,
        0,
        0,
        0
      ],
      "min": [
        1,
        0,
        0,
        0
      ],
      "type": "VEC4"
    },
    {
      "bufferView": 0,
      "byteOffset": 30040,
      "componentType": 5123,
      "count": 140,
      "max": [
        5,
        5,
        5,
        5
      ],
      "min": [
        5,
        5,
        5,
        5
      ],
      "type": "VEC4"
    },
    {
      "bufferView": 4,
      "byteOffset": 122400,
      "componentType": 5126,
      "count": 140,
      "max": [
        1,
        0,
        0,
        0
      ],
      "min": [
        1,
        0,
        0,
        0
      ],
      "type": "VEC4"
    },
    {
      "bufferView": 6,
      "componentType": 5126,
      "count": 37,
      "max": [
        1
      ],
      "min": [
        0.041666667908430099
      ],
      "type": "SCALAR"
    },
    {
      "bufferView": 7,
      "componentType": 5126,
      "count": 37,
      "max": [
        2.7755575615628914e-17,
        -2.0019323825836182,
        0.35098814964294434
      ],
      "min": [
        -1.3877787807814457e-17,
        -2.0019323825836182,
        0.35098814964294434
      ],
      "type": "VEC3"
    },
    {
      "bufferView": 6,
      "byteOffset": 148,
      "componentType": 5126,
      "count": 2,
      "max": [
        1
      ],
      "min": [
        0.041666667908430099
      ],
      "type": "SCALAR"
    },
    {
      "bufferView": 7,
      "byteOffset": 444,
      "componentType": 5126,
      "count": 2,
      "max": [
        1,
        1,
        1
      ],
      "min": [
        1,
        1,
        1
      ],
      "type": "VEC3"
    },
    {
      "bufferView": 6,
      "byteOffset": 156,
      "componentType": 5126,
      "count": 50,
      "max": [
        1
      ],
      "min": [
        0.041666667908430099
      ],
      "type": "SCALAR"
    },
    {
      "bufferView": 8,
      "componentType": 5126,
      "count": 50,
      "max": [
        0.4626314640045166,
        0.53984987735748291,
        0.49689382314682007,
        0.57040578126907349
      ],
      "min": [
        0.41789621114730835,
        0.50308698415756226,
        0.45668599009513855,
        0.5347636342048645
      ],
      "type": "VEC4"
    },
    {
      "bufferView": 6,
      "byteOffset": 356,
      "componentType": 5126,
      "count": 2,
      "max": [
        1
      ],
      "min": [
        0.041666667908430099
      ],
      "type": "SCALAR"
    },
    {
      "bufferView": 7,
      "byteOffset": 468,
      "componentType": 5126,
      "count": 2,
      "max": [
        0,
        0,
        0
      ],
      "min": [
        0,
        0,
        0
      ],
      "type": "VEC3"
    },
    {
      "bufferView": 6,
      "byteOffset": 364,
      "componentType": 5126,
      "count": 2,
      "max": [
        1
      ],
      "min": [
        0.041666667908430099
      ],
      "type": "SCALAR"
    },
    {
      "bufferView": 7,
      "byteOffset": 492,
      "componentType": 5126,
      "count": 2,
      "max": [
        1,
        1,
        1
      ],
      "min": [
        1,
        1,
        1
      ],
      "type": "VEC3"
    },
    {
      "bufferView": 6,
      "byteOffset": 372,
      "componentType": 5126,
      "count": 50,
      "max": [
        1
      ],
      "min": [
        0.041666667908430099
      ],
      "type": "SCALAR"
    },
    {
      "bufferView": 8,
      "byteOffset": 800,
      "componentType": 5126,
      "count": 50,
      "max": [
        0.061048541218042374,
        3.4692889604566166e-18,
        2.1180467525015169e-19,
        1
      ],
      "min": [
        0,
        -3.4688883982449878e-18,
        -2.0717701331322378e-19,
        0.9981347918510437
      ],
      "type": "VEC4"
    },
    {
      "bufferView": 6,
      "byteOffset": 572,
      "componentType": 5126,
      "count": 2,
      "max": [
        1
      ],
      "min": [
        0.041666667908430099
      ],
      "type": "SCALAR"
    },
    {
      "bufferView": 7,
      "byteOffset": 516,
      "componentType": 5126,
      "count": 2,
      "max": [
        0,
        0,
        0
      ],
      "min": [
        0,
        0,
        0
      ],
      "type": "VEC3"
    },
    {
      "bufferView": 6,
      "byteOffset": 580,
      "componentType": 5126,
      "count": 2,
      "max": [
        1
      ],
      "min": [
        0.041666667908430099
      ],
      "type": "SCALAR"
    },
    {
      "bufferView": 7,
      "byteOffset": 540,
      "componentType": 5126,
      "count": 2,
      "max": [
        1,
        1,
        1
      ],
      "min": [
        1,
        1,
        1
      ],
      "type": "VEC3"
    },
    {
      "bufferView": 6,
      "byteOffset": 588,
      "componentType": 5126,
      "count": 50,
      "max": [
        1
      ],
      "min": [
        0.041666667908430099
      ],
      "type": "SCALAR"
    },
    {
      "bufferView": 8,
      "byteOffset": 1600,
      "componentType": 5126,
      "count": 50,
      "max": [
        0,
        3.4692889604566166e-18,
        2.0717701331322378e-19,
        1
      ],
      "min": [
        -0.061048541218042374,
        -3.4688883982449878e-18,
        -2.1180467525015169e-19,
        0.9981347918510437
      ],
      "type": "VEC4"
    },
    {
      "bufferView": 6,
      "byteOffset": 788,
      "componentType": 5126,
      "count": 45,
      "max": [
        1
      ],
      "min": [
        0.041666667908430099
      ],
      "type": "SCALAR"
    },
    {
      "bufferView": 7,
      "byteOffset": 564,
      "componentType": 5126,
      "count": 45,
      "max": [
        -1.6999169588088989,
        0,
        0
      ],
      "min": [
        -1.6999169588088989,
        0,
        -6.6613381477509392e-16
      ],
      "type": "VEC3"
    },
    {
      "bufferView": 6,
      "byteOffset": 968,
      "componentType": 5126,
      "count": 2,
      "max": [
        1
      ],
      "min": [
        0.041666667908430099
      ],
      "type": "SCALAR"
    },
    {
      "bufferView": 7,
      "byteOffset": 1104,
      "componentType": 5126,
      "count": 2,
      "max": [
        1,
        1,
        1
      ],
      "min": [
        1,
        1,
        1
      ],
      "type": "VEC3"
    },
    {
      "bufferView": 6,
      "byteOffset": 976,
      "componentType": 5126,
      "count": 50,
      "max": [
        1
      ],
      "min": [
        0.041666667908430099
      ],
      "type": "SCALAR"
    },
    {
      "bufferView": 8,
      "byteOffset": 2400,
      "componentType": 5126,
      "count": 50,
      "max": [
        0.9991605281829834,
        3.0124960447622238e-18,
        3.3276936307658613e-18,
        1
      ],
      "min": [
        -0.81696999073028564,
        -3.1822159288700883e-18,
        -3.0804706455745345e-18,
        -0.48414576053619385
      ],
      "type": "VEC4"
    },
    {
      "bufferView": 6,
      "byteOffset": 1176,
      "componentType": 5126,
      "count": 50,
      "max": [
        1
      ],
      "min": [
        0.041666667908430099
      ],
      "type": "SCALAR"
    },
    {
      "bufferView": 7,
      "byteOffset": 1128,
      "componentType": 5126,
      "count": 50,
      "max": [
        0,
        2.5850563049316406,
        -2.0019063949584961
      ],
      "min": [
        0,
        2.3213448524475098,
        -2.0019063949584961
      ],
      "type": "VEC3"
    },
    {
      "bufferView": 6,
      "byteOffset": 1376,
      "componentType": 5126,
      "count": 2,
      "max": [
        1
      ],
      "min": [
        0.041666667908430099
      ],
      "type": "SCALAR"
    },
    {
      "bufferView": 7,
      "byteOffset": 1728,
      "componentType": 5126,
      "count": 2,
      "max": [
        1,
        1,
        1
      ],
      "min": [
        1,
        1,
        1
      ],
      "type": "VEC3"
    },
    {
      "bufferView": 6,
      "byteOffset": 1384,
      "componentType": 5126,
      "count": 50,
      "max": [
        1
      ],
      "min": [
        0.041666667908430099
      ],
      "type": "SCALAR"
    },
    {
      "bufferView": 8,
      "byteOffset": 3200,
      "componentType": 5126,
      "count": 50,
      "max": [
        0,
        0.034899495542049408,
        0,
        1
      ],
      "min": [
        0,
        -0.034899495542049408,
        0,
        0.99939084053039551
      ],
      "type": "VEC4"
    }
  ],
  "animations": [
    {
      "channels": [
        {
          "sampler": 0,
          "target": {
            "node": 12,
            "path": "translation"
          }
        },
        {
          "sampler": 1,
          "target": {
            "node": 12,
            "path": "scale"
          }
        },
        {
          "sampler": 2,
          "target": {
            "node": 12,
            "path": "rotation"
          }
        },
        {
          "sampler": 3,
          "target": {
            "node": 13,
            "path": "translation"
          }
        },
        {
          "sampler": 4,
          "target": {
            "node": 13,
            "path": "scale"
          }
        },
        {
          "sampler": 5,
          "target": {
            "node": 13,
            "path": "rotation"
          }
        },
        {
          "sampler": 6,
          "target": {
            "node": 14,
            "path": "translation"
          }
        },
        {
          "sampler": 7,
          "target": {
            "node": 14,
            "path": "scale"
          }
        },
        {
          "sampler": 8,
          "target": {
            "node": 14,
            "path": "rotation"
          }
        },
        {
          "sampler": 9,
          "target": {
            "node": 15,
            "path": "translation"
          }
        },
        {
          "sampler": 10,
          "target": {
            "node": 15,
            "path": "scale"
          }
        },
        {
          "sampler": 11,
          "target": {
            "node": 15,
            "path": "rotation"
          }
        },
        {
          "sampler": 12,
          "target": {
            "node": 11,
            "path": "translation"
          }
        },
        {
          "sampler": 13,
          "target": {
            "node": 11,
            "path": "scale"
          }
        },
        {
          "sampler": 14,
          "target": {
            "node": 11,
            "path": "rotation"
          }
        }
      ],
      "name": "Take 001",
      "samplers": [
        {
          "input": 20,
          "interpolation": "LINEAR",
          "output": 21
        },
        {
          "input": 22,
          "interpolation": "LINEAR",
          "output": 23
        },
        {
          "input": 24,
          "interpolation": "LINEAR",
          "output": 25
        },
        {
          "input": 26,
          "interpolation": "LINEAR",
          "output": 27
        },
        {
          "input": 28,
          "interpolation": "LINEAR",
          "output": 29
        },
        {
          "input": 30,
          "interpolation": "LINEAR",
          "output": 31
        },
        {
          "input": 32,
          "interpolation": "LINEAR",
          "output": 33
        },
        {
          "input": 34,
          "interpolation": "LINEAR",
          "output": 35
        },
        {
          "input": 36,
          "interpolation": "LINEAR",
          "output": 37
        },
        {
          "input": 38,
          "interpolation": "LINEAR",
          "output": 39
        },
        {
          "input": 40,
          "interpolation": "LINEAR",
          "output": 41
        },
        {
          "input": 42,
          "interpolation": "LINEAR",
          "output": 43
        },
        {
          "input": 44,
          "interpolation": "LINEAR",
          "output": 45
        },
        {
          "input": 46,
          "interpolation": "LINEAR",
          "output": 47
        },
        {
          "input": 48,
          "interpolation": "LINEAR",
          "output": 49
        }
      ]
    }
  ],
  "asset": {
    "extras": {
      "author": "Damco (https://sketchfab.com/jondameron5)",
      "license": "CC-BY-4.0 (http://creativecommons.org/licenses/by/4.0/)",
      "source": "https://sketchfab.com/models/9b8de0c57d6446b1a29913094cfc9e3c",
      "title": "Chatter Teeth"
    },
    "generator": "Sketchfab-3.18.6",
    "version": "2.0"
  },
  "bufferViews": [
    {
      "buffer": 0,
      "byteLength": 31160,
      "byteOffset": 0,
      "byteStride": 8,
      "name": "shortBufferViews",
      "target": 34962
    },
    {
      "buffer": 0,
      "byteLength": 80040,
      "byteOffset": 31160,
      "name": "floatBufferViews",
      "target": 34963
    },
    {
      "buffer": 0,
      "byteLength": 12608,
      "byteOffset": 111200,
      "byteStride": 8,
      "name": "floatBufferViews",
      "target": 34962
    },
    {
      "buffer": 0,
      "byteLength": 93480,
      "byteOffset": 123808,
      "byteStride": 12,
      "name": "floatBufferViews",
      "target": 34962
    },
    {
      "buffer": 0,
      "byteLength": 124640,
      "byteOffset": 217288,
      "byteStride": 16,
      "name": "floatBufferViews",
      "target": 34962
    },
    {
      "buffer": 0,
      "byteLength": 384,
      "byteOffset": 341928,
      "byteStride": 64,
      "name": "floatBufferViews"
    },
    {
      "buffer": 0,
      "byteLength": 1584,
      "byteOffset": 342312,
      "name": "floatBufferViews"
    },
    {
      "buffer": 0,
      "byteLength": 1752,
      "byteOffset": 343896,
      "byteStride": 12,
      "name": "floatBufferViews"
    },
    {
      "buffer": 0,
      "byteLength": 4000,
      "byteOffset": 345648,
      "byteStride": 16,
      "name": "floatBufferViews"
    }
  ],
  "buffers": [
    {
      "byteLength": 349648,
      "uri": "scene.bin"
    }
  ],
  "images": [
    {
      "uri": "textures/fantTeethMat_baseColor.png"
    }
  ],
  "materials": [
    {
      "doubleSided": true,
      "name": "fantTeethMat",
      "pbrMetallicRoughness": {
        "baseColorFactor": [
          1,
          1,
          1,
          1
        ],
        "baseColorTexture": {
          "index": 0,
          "texCoord": 0
        },
        "metallicFactor": 0,
        "roughnessFactor": 1
      }
    },
    {
      "doubleSided": true,
      "name": "blinn43",
      "pbrMetallicRoughness": {
        "baseColorFactor": [
          0.67000000000000004,
          0.67000000000000004,
          0.67000000000000004,
          1
        ],
        "metallicFactor": 0,
        "roughnessFactor": 0.20999999999999996
      }
    },
    {
      "doubleSided": true,
      "emissiveFactor": [
        0,
        0,
        0
      ],
      "name": "blinn12",
      "pbrMetallicRoughness": {
        "baseColorFactor": [
          0.35641775999999997,
          0.35641775999999997,
          0.35641775999999997,
          1
        ],
        "metallicFactor": 1,
        "roughnessFactor": 0.15000000000000002
      }
    }
  ],
  "meshes": [
    {
      "name": "fantTeethGeo_fantTeethMat_0",
      "primitives": [
        {
          "attributes": {
            "JOINTS_0": 14,
            "NORMAL": 1,
            "POSITION": 0,
            "TANGENT": 2,
            "TEXCOORD_0": 3,
            "WEIGHTS_0": 15
          },
          "indices": 4,
          "material": 0,
          "mode": 4
        }
      ]
    },
    {
      "name": "fantTeethGeo_blinn43_0",
      "primitives": [
        {
          "attributes": {
            "JOINTS_0": 16,
            "NORMAL": 6,
            "POSITION": 5,
            "TANGENT": 7,
            "WEIGHTS_0": 17
          },
          "indices": 8,
          "material": 1,
          "mode": 4
        }
      ]
    },
    {
      "name": "fantTeethGeo_blinn12_0",
      "primitives": [
        {
          "attributes": {
            "JOINTS_0": 18,
            "NORMAL": 10,
            "POSITION": 9,
            "TANGENT": 11,
            "WEIGHTS_0": 19
          },
          "indices": 12,
          "material": 2,
          "mode": 4
        }
      ]
    }
  ],
  "nodes": [
    {
      "children": [
        1
      ],
      "name": "RootNode (gltf orientation matrix)",
      "rotation": [
        -0.70710678118654746,
        -0,
        -0,
        0.70710678118654757
      ]
    },
    {
      "children": [
        2
      ],
      "name": "RootNode (model correction matrix)"
    },
    {
      "children": [
        3
      ],
      "matrix": [
        1,
        0,
        0,
        0,
        0,
        0,
        1,
        0,
        0,
        -1,
        0,
        0,
        0,
        0,
        0,
        1
      ],
      "name": "11feed5b248a449f8f96df23cf5d59be.fbx"
    },
    {
      "children": [
        4
      ],
      "name": ""
    },
    {
      "children": [
        5
      ],
      "name": "RootNode"
    },
    {
      "children": [
        6
      ],
      "name": "fantTeethToy"
    },
    {
      "children": [
        7,
        8,
        9,
        10,
        16
      ],
      "name": ""
    },
    {
      "children": [
        11
      ],
      "name": "_rootJoint"
    },
    {
      "mesh": 0,
      "name": "",
      "skin": 0
    },
    {
      "mesh": 1,
      "name": "",
      "skin": 0
    },
    {
      "mesh": 2,
      "name": "",
      "skin": 0
    },
    {
      "children": [
        12,
        13,
        14,
        15
      ],
      "name": "teethJnt_03",
      "rotation": [
        0,
        0.01680607907474041,
        0,
        0.9998587965965271
      ],
      "translation": [
        0,
        2.5166866779327393,
        -2.0019063949584961
      ]
    },
    {
      "name": "feetJnt_00",
      "rotation": [
        0.44308185577392578,
        0.50308698415756226,
        0.49689382314682007,
        0.55107027292251587
      ],
      "translation": [
        1.3877787807814457e-17,
        -2.0019323825836182,
        0.35098814964294434
      ]
    },
    {
      "name": "loTeethJnt_02"
    },
    {
      "name": "upTeethJnt_04"
    },
    {
      "name": "keyJnt_01",
      "rotation": [
        0.88788521289825439,
        0,
        0,
        -0.46006506681442261
      ],
      "translation": [
        -1.6999169588088989,
        0,
        -4.4408920985006262e-16
      ]
    },
    {
      "name": "fantTeethGeo"
    }
  ],
  "samplers": [
    {
      "magFilter": 9729,
      "minFilter": 9987,
      "wrapS": 10497,
      "wrapT": 10497
    }
  ],
  "scene": 0,
  "scenes": [
    {
      "name": "OSG_Scene",
      "nodes": [
        0
      ]
    }
  ],
  "skins": [
    {
      "inverseBindMatrices": 13,
      "joints": [
        7,
        11,
        12,
        13,
        14,
        15
      ],
      "skeleton": 7
    }
  ],
  "textures": [
    {
      "sampler": 0,
      "source": 0
    }
  ]
}

