{
  "accessors": [
    {
      "bufferView": 2,
      "componentType": 5126,
      "count": 3057,
      "max": [
        1.4849663972854614,
        1.0476813316345215,
        1.9276078939437866
      ],
      "min": [
        -1.5249664783477783,
        -0.55219686031341553,
        0.71239215135574341
      ],
      "type": "VEC3"
    },
    {
      "bufferView": 2,
      "byteOffset": 36684,
      "componentType": 5126,
      "count": 3057,
      "max": [
        0.99889421463012695,
        0.99928849935531616,
        0.99986141920089722
      ],
      "min": [
        -0.99974143505096436,
        -0.99941182136535645,
        -0.99986273050308228
      ],
      "type": "VEC3"
    },
    {
      "bufferView": 3,
      "componentType": 5126,
      "count": 3057,
      "max": [
        0.97947663068771362,
        0.98522418737411499,
        0.99913269281387329,
        -1
      ],
      "min": [
        -0.99999320507049561,
        -0.99990791082382202,
        -0.99999970197677612,
        -1
      ],
      "type": "VEC4"
    },
    {
      "bufferView": 1,
      "componentType": 5126,
      "count": 3057,
      "max": [
        0.97172999382019043,
        0.99000000953674316
      ],
      "min": [
        0.0099999997764825821,
        0.0099999904632568359
      ],
      "type": "VEC2"
    },
    {
      "bufferView": 0,
      "componentType": 5125,
      "count": 16590,
      "max": [
        3056
      ],
      "min": [
        0
      ],
      "type": "SCALAR"
    },
    {
      "bufferView": 2,
      "byteOffset": 73368,
      "componentType": 5126,
      "count": 4119,
      "max": [
        -0.82435542345046997,
        1.549803614616394,
        0.0078609855845570564
      ],
      "min": [
        -2.2156445980072021,
        -0.4985690712928772,
        -1.8878610134124756
      ],
      "type": "VEC3"
    },
    {
      "bufferView": 2,
      "byteOffset": 122796,
      "componentType": 5126,
      "count": 4119,
      "max": [
        0.99994027614593506,
        0.99947410821914673,
        0.99995952844619751
      ],
      "min": [
        -0.99992340803146362,
        -0.99995142221450806,
        -0.99934834241867065
      ],
      "type": "VEC3"
    },
    {
      "bufferView": 3,
      "byteOffset": 48912,
      "componentType": 5126,
      "count": 4119,
      "max": [
        0.99876612424850464,
        0.99957150220870972,
        0.99569541215896606,
        -1
      ],
      "min": [
        -0.88911235332489014,
        -0.99987149238586426,
        -0.99974304437637329,
        -1
      ],
      "type": "VEC4"
    },
    {
      "bufferView": 1,
      "byteOffset": 24456,
      "componentType": 5126,
      "count": 4119,
      "max": [
        0.99000000953674316,
        0.99000000953674316
      ],
      "min": [
        0.0099999997764825821,
        0.010063886642456055
      ],
      "type": "VEC2"
    },
    {
      "bufferView": 0,
      "byteOffset": 66360,
      "componentType": 5125,
      "count": 21582,
      "max": [
        4118
      ],
      "min": [
        0
      ],
      "type": "SCALAR"
    },
    {
      "bufferView": 2,
      "byteOffset": 172224,
      "componentType": 5126,
      "count": 5637,
      "max": [
        2.1500163078308105,
        0.98046690225601196,
        0.094741076231002808
      ],
      "min": [
        0.55175912380218506,
        -0.3104986846446991,
        -1.863710880279541
      ],
      "type": "VEC3"
    },
    {
      "bufferView": 2,
      "byteOffset": 239868,
      "componentType": 5126,
      "count": 5637,
      "max": [
        0.99998390674591064,
        0.99999010562896729,
        0.99983811378479004
      ],
      "min": [
        -0.99992090463638306,
        -0.99991673231124878,
        -0.99838805198669434
      ],
      "type": "VEC3"
    },
    {
      "bufferView": 3,
      "byteOffset": 114816,
      "componentType": 5126,
      "count": 5637,
      "max": [
        0.99970108270645142,
        0.99996954202651978,
        0.9997820258140564,
        -1
      ],
      "min": [
        -0.9999350905418396,
        -0.93889105319976807,
        -0.99987810850143433,
        -1
      ],
      "type": "VEC4"
    },
    {
      "bufferView": 1,
      "byteOffset": 57408,
      "componentType": 5126,
      "count": 5637,
      "max": [
        0.98145729303359985,
        0.99000000953674316
      ],
      "min": [
        0.0099999997764825821,
        0.0099999904632568359
      ],
      "type": "VEC2"
    },
    {
      "bufferView": 0,
      "byteOffset": 152688,
      "componentType": 5125,
      "count": 31152,
      "max": [
        5636
      ],
      "min": [
        0
      ],
      "type": "SCALAR"
    }
  ],
  "asset": {
    "extras": {
      "author": "Jaime Tezanos (https://sketchfab.com/SrColmillo)",
      "license": "CC-BY-NC-4.0 (http://creativecommons.org/licenses/by-nc/4.0/)",
      "source": "https://sketchfab.com/models/22c761bc950249bda4c7a1f4e1a3e7d9",
      "title": "Nubes Tb"
    },
    "generator": "Sketchfab-3.44.1",
    "version": "2.0"
  },
  "bufferViews": [
    {
      "buffer": 0,
      "byteLength": 277296,
      "byteOffset": 0,
      "name": "floatBufferViews",
      "target": 34963
    },
    {
      "buffer": 0,
      "byteLength": 102504,
      "byteOffset": 277296,
      "byteStride": 8,
      "name": "floatBufferViews",
      "target": 34962
    },
    {
      "buffer": 0,
      "byteLength": 307512,
      "byteOffset": 379800,
      "byteStride": 12,
      "name": "floatBufferViews",
      "target": 34962
    },
    {
      "buffer": 0,
      "byteLength": 205008,
      "byteOffset": 687312,
      "byteStride": 16,
      "name": "floatBufferViews",
      "target": 34962
    }
  ],
  "buffers": [
    {
      "byteLength": 892320,
      "uri": "scene.bin"
    }
  ],
  "images": [
    {
      "uri": "textures/nube3_baseColor.jpeg"
    },
    {
      "uri": "textures/nube1_baseColor.jpeg"
    },
    {
      "uri": "textures/nube2_baseColor.jpeg"
    }
  ],
  "materials": [
    {
      "alphaMode": "BLEND",
      "doubleSided": true,
      "emissiveFactor": [
        0,
        0,
        0
      ],
      "name": "nube1",
      "pbrMetallicRoughness": {
        "baseColorFactor": [
          1,
          1,
          1,
          0.80000000000000004
        ],
        "baseColorTexture": {
          "index": 1,
          "texCoord": 0
        },
        "metallicFactor": 0,
        "roughnessFactor": 1
      }
    },
    {
      "alphaMode": "BLEND",
      "doubleSided": true,
      "emissiveFactor": [
        0,
        0,
        0
      ],
      "name": "nube2",
      "pbrMetallicRoughness": {
        "baseColorFactor": [
          1,
          1,
          1,
          0.80000000000000004
        ],
        "baseColorTexture": {
          "index": 2,
          "texCoord": 0
        },
        "metallicFactor": 0,
        "roughnessFactor": 1
      }
    },
    {
      "alphaMode": "BLEND",
      "doubleSided": true,
      "emissiveFactor": [
        0,
        0,
        0
      ],
      "name": "nube3",
      "pbrMetallicRoughness": {
        "baseColorFactor": [
          1,
          1,
          1,
          0.80000000000000004
        ],
        "baseColorTexture": {
          "index": 0,
          "texCoord": 0
        },
        "metallicFactor": 0,
        "roughnessFactor": 1
      }
    }
  ],
  "meshes": [
    {
      "primitives": [
        {
          "attributes": {
            "NORMAL": 1,
            "POSITION": 0,
            "TANGENT": 2,
            "TEXCOORD_0": 3
          },
          "indices": 4,
          "material": 0,
          "mode": 4
        }
      ]
    },
    {
      "primitives": [
        {
          "attributes": {
            "NORMAL": 6,
            "POSITION": 5,
            "TANGENT": 7,
            "TEXCOORD_0": 8
          },
          "indices": 9,
          "material": 1,
          "mode": 4
        }
      ]
    },
    {
      "primitives": [
        {
          "attributes": {
            "NORMAL": 11,
            "POSITION": 10,
            "TANGENT": 12,
            "TEXCOORD_0": 13
          },
          "indices": 14,
          "material": 2,
          "mode": 4
        }
      ]
    }
  ],
  "nodes": [
    {
      "children": [
        1
      ],
      "name": "RootNode (gltf orientation matrix)",
      "rotation": [
        -0.70710678118654746,
        -0,
        -0,
        0.70710678118654757
      ]
    },
    {
      "children": [
        2
      ],
      "name": "RootNode (model correction matrix)"
    },
    {
      "children": [
        3
      ],
      "name": "root"
    },
    {
      "children": [
        4,
        6,
        8
      ],
      "matrix": [
        1,
        0,
        0,
        0,
        0,
        2.2204460492503131e-16,
        1,
        0,
        0,
        -1,
        2.2204460492503131e-16,
        0,
        0,
        0,
        0,
        1
      ],
      "name": "GLTF_SceneRootNode"
    },
    {
      "children": [
        5
      ],
      "name": "nube1_0"
    },
    {
      "mesh": 0,
      "name": ""
    },
    {
      "children": [
        7
      ],
      "name": "nube2_1"
    },
    {
      "mesh": 1,
      "name": ""
    },
    {
      "children": [
        9
      ],
      "name": "nube3_2"
    },
    {
      "mesh": 2,
      "name": ""
    }
  ],
  "samplers": [
    {
      "magFilter": 9729,
      "minFilter": 9987,
      "wrapS": 10497,
      "wrapT": 10497
    }
  ],
  "scene": 0,
  "scenes": [
    {
      "name": "OSG_Scene",
      "nodes": [
        0
      ]
    }
  ],
  "textures": [
    {
      "sampler": 0,
      "source": 0
    },
    {
      "sampler": 0,
      "source": 1
    },
    {
      "sampler": 0,
      "source": 2
    }
  ]
}

