{
  "accessors": [
    {
      "bufferView": 2,
      "componentType": 5126,
      "count": 19539,
      "max": [
        2.2501099109649658,
        0.95478999614715576,
        3.2308599948883057
      ],
      "min": [
        -2.2810599803924561,
        -0.95478999614715576,
        -0.080159999430179596
      ],
      "type": "VEC3"
    },
    {
      "bufferView": 2,
      "byteOffset": 234468,
      "componentType": 5126,
      "count": 19539,
      "max": [
        1,
        1,
        1
      ],
      "min": [
        -1,
        -1,
        -1
      ],
      "type": "VEC3"
    },
    {
      "bufferView": 3,
      "componentType": 5126,
      "count": 19539,
      "max": [
        1,
        1,
        1,
        1
      ],
      "min": [
        -1,
        -1,
        -1,
        -1
      ],
      "type": "VEC4"
    },
    {
      "bufferView": 1,
      "componentType": 5126,
      "count": 19539,
      "max": [
        0.99734997749328613,
        0.99832999706268311
      ],
      "min": [
        0.0060200002044439316,
        0.013679999858140945
      ],
      "type": "VEC2"
    },
    {
      "bufferView": 0,
      "componentType": 5125,
      "count": 91944,
      "max": [
        19538
      ],
      "min": [
        0
      ],
      "type": "SCALAR"
    },
    {
      "bufferView": 2,
      "byteOffset": 468936,
      "componentType": 5126,
      "count": 125,
      "max": [
        2.0615100860595703,
        -0.16561999917030334,
        0.65375000238418579
      ],
      "min": [
        1.8825299739837646,
        -0.16754999756813049,
        0.61923998594284058
      ],
      "type": "VEC3"
    },
    {
      "bufferView": 2,
      "byteOffset": 470436,
      "componentType": 5126,
      "count": 125,
      "max": [
        0.70718181133270264,
        -0.70701682567596436,
        0.70712178945541382
      ],
      "min": [
        -0.70719683170318604,
        -1,
        -0.70712178945541382
      ],
      "type": "VEC3"
    },
    {
      "bufferView": 3,
      "byteOffset": 312624,
      "componentType": 5126,
      "count": 125,
      "max": [
        1,
        0.70714277029037476,
        0.95572417974472046,
        1
      ],
      "min": [
        0.20805127918720245,
        -0.70714271068572998,
        -0.95572924613952637,
        1
      ],
      "type": "VEC4"
    },
    {
      "bufferView": 0,
      "byteOffset": 367776,
      "componentType": 5125,
      "count": 480,
      "max": [
        124
      ],
      "min": [
        0
      ],
      "type": "SCALAR"
    },
    {
      "bufferView": 4,
      "componentType": 5126,
      "count": 2,
      "max": [
        0.083329997956752777
      ],
      "min": [
        0.041669998317956924
      ],
      "type": "SCALAR"
    },
    {
      "bufferView": 5,
      "componentType": 5126,
      "count": 2,
      "max": [
        0,
        0,
        0.0087299998849630356,
        1
      ],
      "min": [
        0,
        0,
        0,
        0.99996000528335571
      ],
      "type": "VEC4"
    }
  ],
  "animations": [
    {
      "channels": [
        {
          "sampler": 0,
          "target": {
            "node": 8,
            "path": "rotation"
          }
        }
      ],
      "name": "EmptyAction",
      "samplers": [
        {
          "input": 9,
          "interpolation": "LINEAR",
          "output": 10
        }
      ]
    }
  ],
  "asset": {
    "extras": {
      "author": "3DHaupt (https://sketchfab.com/dennish2010)",
      "license": "CC-BY-NC-4.0 (http://creativecommons.org/licenses/by-nc/4.0/)",
      "source": "https://sketchfab.com/models/qb1DsRh6GJU2intFpbqCjRQMTD5",
      "title": "PC Monitor"
    },
    "generator": "Sketchfab-3.28.5",
    "version": "2.0"
  },
  "bufferViews": [
    {
      "buffer": 0,
      "byteLength": 369696,
      "byteOffset": 0,
      "name": "floatBufferViews",
      "target": 34963
    },
    {
      "buffer": 0,
      "byteLength": 156312,
      "byteOffset": 369696,
      "byteStride": 8,
      "name": "floatBufferViews",
      "target": 34962
    },
    {
      "buffer": 0,
      "byteLength": 471936,
      "byteOffset": 526008,
      "byteStride": 12,
      "name": "floatBufferViews",
      "target": 34962
    },
    {
      "buffer": 0,
      "byteLength": 314624,
      "byteOffset": 997944,
      "byteStride": 16,
      "name": "floatBufferViews",
      "target": 34962
    },
    {
      "buffer": 0,
      "byteLength": 8,
      "byteOffset": 1312568,
      "name": "floatBufferViews"
    },
    {
      "buffer": 0,
      "byteLength": 32,
      "byteOffset": 1312576,
      "byteStride": 16,
      "name": "floatBufferViews"
    }
  ],
  "buffers": [
    {
      "byteLength": 1312608,
      "uri": "scene.bin"
    }
  ],
  "images": [
    {
      "uri": "textures/Monitor_baseColor.jpeg"
    },
    {
      "uri": "textures/Monitor_normal.png"
    }
  ],
  "materials": [
    {
      "doubleSided": true,
      "emissiveFactor": [
        0,
        0,
        0
      ],
      "name": "Monitor",
      "normalTexture": {
        "index": 1,
        "scale": 1,
        "texCoord": 0
      },
      "pbrMetallicRoughness": {
        "baseColorFactor": [
          1,
          1,
          1,
          1
        ],
        "baseColorTexture": {
          "index": 0,
          "texCoord": 0
        },
        "metallicFactor": 0,
        "roughnessFactor": 0.59999999999999998
      }
    },
    {
      "doubleSided": true,
      "emissiveFactor": [
        1,
        1,
        1
      ],
      "name": "Monitor_Light",
      "pbrMetallicRoughness": {
        "baseColorFactor": [
          0,
          0.047349245024320009,
          0.64000001904000015,
          1
        ],
        "metallicFactor": 0,
        "roughnessFactor": 0.59999999999999998
      }
    }
  ],
  "meshes": [
    {
      "name": "Plane.002_0",
      "primitives": [
        {
          "attributes": {
            "NORMAL": 1,
            "POSITION": 0,
            "TANGENT": 2,
            "TEXCOORD_0": 3
          },
          "indices": 4,
          "material": 0,
          "mode": 4
        }
      ]
    },
    {
      "name": "Plane.002_1",
      "primitives": [
        {
          "attributes": {
            "NORMAL": 6,
            "POSITION": 5,
            "TANGENT": 7
          },
          "indices": 8,
          "material": 1,
          "mode": 4
        }
      ]
    }
  ],
  "nodes": [
    {
      "children": [
        1
      ],
      "name": "RootNode (gltf orientation matrix)",
      "rotation": [
        -0.70710678118654746,
        -0,
        -0,
        0.70710678118654757
      ]
    },
    {
      "children": [
        2
      ],
      "name": "RootNode (model correction matrix)"
    },
    {
      "children": [
        3,
        5,
        8,
        12,
        14
      ],
      "name": "Root"
    },
    {
      "children": [
        4
      ],
      "matrix": [
        0.81808000000000003,
        0.11578000000000002,
        -0.56333,
        0,
        0.13486999999999999,
        0.91357999999999995,
        0.38364000000000004,
        0,
        0.55906,
        -0.38982000000000011,
        0.73177000000000014,
        0,
        9.8150000000000013,
        -1.8511,
        8.6399099999999986,
        1
      ],
      "name": "Hemi"
    },
    {
      "name": "Hemi"
    },
    {
      "children": [
        6,
        7
      ],
      "matrix": [
        1,
        0,
        0,
        0,
        0,
        1,
        0,
        0,
        0,
        0,
        1,
        0,
        0.13702,
        -0.002870000000000001,
        0.13592000000000001,
        1
      ],
      "name": "Plane.002"
    },
    {
      "mesh": 0,
      "name": "Plane.002_0"
    },
    {
      "mesh": 1,
      "name": "Plane.002_1"
    },
    {
      "children": [
        9
      ],
      "name": "Empty",
      "rotation": [
        0,
        0,
        -0.0087300166487693787,
        0.99996191263198853
      ],
      "scale": [
        3.8616199493408203,
        3.8616199493408203,
        3.8616199493408203
      ],
      "translation": [
        0.13702000677585602,
        -0.0028699999675154686,
        0.13592000305652618
      ]
    },
    {
      "children": [
        10
      ],
      "matrix": [
        0.25896000000000002,
        -0,
        0,
        0,
        0,
        0,
        0.25896000000000002,
        0,
        -0,
        -0.25896000000000002,
        0,
        0,
        0.032420000000000004,
        -2.4500199999999999,
        0.47021000000000002,
        1
      ],
      "name": "Camera"
    },
    {
      "children": [
        11
      ],
      "matrix": [
        0.54464000000000012,
        -0,
        0.83867000000000014,
        0,
        0.83867000000000014,
        0,
        -0.54464000000000012,
        0,
        0,
        1,
        0,
        0,
        -0,
        -0,
        -0,
        1
      ],
      "name": "Point"
    },
    {
      "name": "Point"
    },
    {
      "children": [
        13
      ],
      "matrix": [
        1,
        0,
        0,
        0,
        0,
        1,
        0,
        0,
        0,
        0,
        1,
        0,
        2.1090499999999999,
        -0.18953000000000003,
        0.77242,
        1
      ],
      "name": "Point.001"
    },
    {
      "name": "Point.001"
    },
    {
      "children": [
        15
      ],
      "matrix": [
        1,
        0,
        0,
        0,
        0,
        1,
        0,
        0,
        0,
        0,
        1,
        0,
        2.1090499999999999,
        -0.18953000000000003,
        0.77242,
        1
      ],
      "name": "Point.002"
    },
    {
      "name": "Point.002"
    }
  ],
  "samplers": [
    {
      "magFilter": 9729,
      "minFilter": 9987,
      "wrapS": 10497,
      "wrapT": 10497
    }
  ],
  "scene": 0,
  "scenes": [
    {
      "name": "OSG_Scene",
      "nodes": [
        0
      ]
    }
  ],
  "textures": [
    {
      "sampler": 0,
      "source": 0
    },
    {
      "sampler": 0,
      "source": 1
    }
  ]
}

