{
  "accessors": [
    {
      "bufferView": 2,
      "componentType": 5126,
      "count": 234,
      "max": [
        57.236083984375,
        56.366542816162109,
        21.721073150634766
      ],
      "min": [
        -57.236087799072266,
        -56.366542816162109,
        0.32200029492378235
      ],
      "type": "VEC3"
    },
    {
      "bufferView": 2,
      "byteOffset": 2808,
      "componentType": 5126,
      "count": 234,
      "max": [
        1,
        0.98480784893035889,
        0.99832344055175781
      ],
      "min": [
        -1,
        -0.98480790853500366,
        -0.99832350015640259
      ],
      "type": "VEC3"
    },
    {
      "bufferView": 3,
      "componentType": 5126,
      "count": 234,
      "max": [
        6.5990239939139883e-09,
        0.9745553731918335,
        0.91789156198501587,
        1
      ],
      "min": [
        -0.99832350015640259,
        -0.9745553731918335,
        -0.91789168119430542,
        -1
      ],
      "type": "VEC4"
    },
    {
      "bufferView": 1,
      "componentType": 5126,
      "count": 234,
      "max": [
        0.99799996614456177,
        0.74858361482620239
      ],
      "min": [
        0.0020000000949949026,
        0.56239438056945801
      ],
      "type": "VEC2"
    },
    {
      "bufferView": 0,
      "componentType": 5125,
      "count": 1296,
      "max": [
        233
      ],
      "min": [
        0
      ],
      "type": "SCALAR"
    },
    {
      "bufferView": 2,
      "byteOffset": 5616,
      "componentType": 5126,
      "count": 2154,
      "max": [
        75.140304565429688,
        60.221790313720703,
        37.438014984130859
      ],
      "min": [
        -74.757980346679688,
        -60.273536682128906,
        22.654962539672852
      ],
      "type": "VEC3"
    },
    {
      "bufferView": 2,
      "byteOffset": 31464,
      "componentType": 5126,
      "count": 2154,
      "max": [
        1,
        1,
        1
      ],
      "min": [
        -1,
        -1,
        -1
      ],
      "type": "VEC3"
    },
    {
      "bufferView": 3,
      "byteOffset": 3744,
      "componentType": 5126,
      "count": 2154,
      "max": [
        1,
        1,
        1,
        1
      ],
      "min": [
        -1,
        -1,
        -1,
        -1
      ],
      "type": "VEC4"
    },
    {
      "bufferView": 1,
      "byteOffset": 1872,
      "componentType": 5126,
      "count": 2154,
      "max": [
        1,
        1
      ],
      "min": [
        0,
        0
      ],
      "type": "VEC2"
    },
    {
      "bufferView": 0,
      "byteOffset": 5184,
      "componentType": 5125,
      "count": 9600,
      "max": [
        2153
      ],
      "min": [
        0
      ],
      "type": "SCALAR"
    },
    {
      "bufferView": 2,
      "byteOffset": 57312,
      "componentType": 5126,
      "count": 580,
      "max": [
        56.409629821777344,
        35.772274017333984,
        38.949436187744141
      ],
      "min": [
        -55.597770690917969,
        -33.678146362304688,
        26.041494369506836
      ],
      "type": "VEC3"
    },
    {
      "bufferView": 2,
      "byteOffset": 64272,
      "componentType": 5126,
      "count": 580,
      "max": [
        0.99444717168807983,
        0.97675204277038574,
        0.99623584747314453
      ],
      "min": [
        -0.99444717168807983,
        -0.97675192356109619,
        -0.99623590707778931
      ],
      "type": "VEC3"
    },
    {
      "bufferView": 3,
      "byteOffset": 38208,
      "componentType": 5126,
      "count": 580,
      "max": [
        0.98814666271209717,
        0.99766379594802856,
        0.99247264862060547,
        1
      ],
      "min": [
        -0.99569916725158691,
        -0.99968415498733521,
        -0.99217694997787476,
        -1
      ],
      "type": "VEC4"
    },
    {
      "bufferView": 1,
      "byteOffset": 19104,
      "componentType": 5126,
      "count": 580,
      "max": [
        1.0277777910232544,
        1.0126322507858276
      ],
      "min": [
        -0.0023275809362530708,
        -0.0097879413515329361
      ],
      "type": "VEC2"
    },
    {
      "bufferView": 0,
      "byteOffset": 43584,
      "componentType": 5125,
      "count": 1272,
      "max": [
        579
      ],
      "min": [
        0
      ],
      "type": "SCALAR"
    },
    {
      "bufferView": 2,
      "byteOffset": 71232,
      "componentType": 5126,
      "count": 470,
      "max": [
        67.658645629882812,
        38.468040466308594,
        31.523601531982422
      ],
      "min": [
        -64.583595275878906,
        -37.098548889160156,
        18.180936813354492
      ],
      "type": "VEC3"
    },
    {
      "bufferView": 2,
      "byteOffset": 76872,
      "componentType": 5126,
      "count": 470,
      "max": [
        0.99297583103179932,
        0.97528856992721558,
        0.99623584747314453
      ],
      "min": [
        -0.99382942914962769,
        -0.98161637783050537,
        -0.99659496545791626
      ],
      "type": "VEC3"
    },
    {
      "bufferView": 3,
      "byteOffset": 47488,
      "componentType": 5126,
      "count": 470,
      "max": [
        0.99990153312683105,
        0.99766385555267334,
        0.99044781923294067,
        1
      ],
      "min": [
        -0.99569916725158691,
        -0.99968415498733521,
        -0.99066191911697388,
        -1
      ],
      "type": "VEC4"
    },
    {
      "bufferView": 1,
      "byteOffset": 23744,
      "componentType": 5126,
      "count": 470,
      "max": [
        1.0277777910232544,
        1.0126322507858276
      ],
      "min": [
        -0.0023275809362530708,
        -0.0097879413515329361
      ],
      "type": "VEC2"
    },
    {
      "bufferView": 0,
      "byteOffset": 48672,
      "componentType": 5125,
      "count": 1272,
      "max": [
        469
      ],
      "min": [
        0
      ],
      "type": "SCALAR"
    },
    {
      "bufferView": 2,
      "byteOffset": 82512,
      "componentType": 5126,
      "count": 272,
      "max": [
        54.502372741699219,
        53.486103057861328,
        91.793136596679688
      ],
      "min": [
        -54.120048522949219,
        -53.486103057861328,
        -19.772598266601562
      ],
      "type": "VEC3"
    },
    {
      "bufferView": 2,
      "byteOffset": 85776,
      "componentType": 5126,
      "count": 272,
      "max": [
        0.99605393409729004,
        0.98092168569564819,
        1
      ],
      "min": [
        -0.99605393409729004,
        -0.98092168569564819,
        -1
      ],
      "type": "VEC3"
    },
    {
      "bufferView": 3,
      "byteOffset": 55008,
      "componentType": 5126,
      "count": 272,
      "max": [
        1,
        0.97360825538635254,
        0.99815863370895386,
        1
      ],
      "min": [
        -0.99991089105606079,
        -0.97360819578170776,
        -0.99605399370193481,
        -1
      ],
      "type": "VEC4"
    },
    {
      "bufferView": 1,
      "byteOffset": 27504,
      "componentType": 5126,
      "count": 272,
      "max": [
        0.72742819786071777,
        0.82206058502197266
      ],
      "min": [
        0.32049798965454102,
        0.33098185062408447
      ],
      "type": "VEC2"
    },
    {
      "bufferView": 0,
      "byteOffset": 53760,
      "componentType": 5125,
      "count": 1392,
      "max": [
        271
      ],
      "min": [
        0
      ],
      "type": "SCALAR"
    },
    {
      "bufferView": 2,
      "byteOffset": 89040,
      "componentType": 5126,
      "count": 128,
      "max": [
        64.2425537109375,
        65.499549865722656,
        26.720365524291992
      ],
      "min": [
        -68.22052001953125,
        -65.499565124511719,
        12.812041282653809
      ],
      "type": "VEC3"
    },
    {
      "bufferView": 2,
      "byteOffset": 90576,
      "componentType": 5126,
      "count": 128,
      "max": [
        0.96263021230697632,
        0.96907210350036621,
        1
      ],
      "min": [
        -0.96263045072555542,
        -0.96907186508178711,
        -1
      ],
      "type": "VEC3"
    },
    {
      "bufferView": 3,
      "byteOffset": 59360,
      "componentType": 5126,
      "count": 128,
      "max": [
        0.96907216310501099,
        0.96263039112091064,
        0.79224830865859985,
        1
      ],
      "min": [
        -0.96907180547714233,
        -0.96263045072555542,
        -0.79224872589111328,
        -1
      ],
      "type": "VEC4"
    },
    {
      "bufferView": 1,
      "byteOffset": 29680,
      "componentType": 5126,
      "count": 128,
      "max": [
        0.56371432542800903,
        0.99799996614456177
      ],
      "min": [
        0.0020000000949949026,
        0.0020000000949949026
      ],
      "type": "VEC2"
    },
    {
      "bufferView": 0,
      "byteOffset": 59328,
      "componentType": 5125,
      "count": 576,
      "max": [
        127
      ],
      "min": [
        0
      ],
      "type": "SCALAR"
    }
  ],
  "asset": {
    "extras": {
      "author": "Anthony Yanez (https://sketchfab.com/paulyanez)",
      "license": "CC-BY-4.0 (http://creativecommons.org/licenses/by/4.0/)",
      "source": "https://sketchfab.com/models/6bf2dc6ffc594a8598bcf84f5d0325f1",
      "title": "Krabby Patty (Spongebob)"
    },
    "generator": "Sketchfab-3.53.2",
    "version": "2.0"
  },
  "bufferViews": [
    {
      "buffer": 0,
      "byteLength": 61632,
      "byteOffset": 0,
      "name": "floatBufferViews",
      "target": 34963
    },
    {
      "buffer": 0,
      "byteLength": 30704,
      "byteOffset": 61632,
      "byteStride": 8,
      "name": "floatBufferViews",
      "target": 34962
    },
    {
      "buffer": 0,
      "byteLength": 92112,
      "byteOffset": 92336,
      "byteStride": 12,
      "name": "floatBufferViews",
      "target": 34962
    },
    {
      "buffer": 0,
      "byteLength": 61408,
      "byteOffset": 184448,
      "byteStride": 16,
      "name": "floatBufferViews",
      "target": 34962
    }
  ],
  "buffers": [
    {
      "byteLength": 245856,
      "uri": "scene.bin"
    }
  ],
  "images": [
    {
      "uri": "textures/03_-_Default_normal.png"
    },
    {
      "uri": "textures/03_-_Default_baseColor.jpeg"
    },
    {
      "uri": "textures/07_-_Default_baseColor.jpeg"
    },
    {
      "uri": "textures/09_-_Default_baseColor.jpeg"
    },
    {
      "uri": "textures/02_-_Default_normal.png"
    },
    {
      "uri": "textures/02_-_Default_baseColor.jpeg"
    },
    {
      "uri": "textures/08_-_Default_baseColor.jpeg"
    },
    {
      "uri": "textures/13_-_Default_baseColor.jpeg"
    }
  ],
  "materials": [
    {
      "doubleSided": true,
      "emissiveFactor": [
        0,
        0,
        0
      ],
      "name": "03_-_Default",
      "normalTexture": {
        "index": 0,
        "scale": 1,
        "texCoord": 0
      },
      "pbrMetallicRoughness": {
        "baseColorFactor": [
          1,
          1,
          1,
          1
        ],
        "baseColorTexture": {
          "index": 1,
          "texCoord": 0
        },
        "metallicFactor": 0.61756859760000005,
        "roughnessFactor": 0.89297135959999996
      }
    },
    {
      "doubleSided": true,
      "emissiveFactor": [
        0,
        0,
        0
      ],
      "name": "09_-_Default",
      "pbrMetallicRoughness": {
        "baseColorFactor": [
          1,
          1,
          1,
          1
        ],
        "baseColorTexture": {
          "index": 3,
          "texCoord": 0
        },
        "metallicFactor": 0.80049542679999997,
        "roughnessFactor": 0.89297135959999996
      }
    },
    {
      "doubleSided": true,
      "emissiveFactor": [
        0,
        0,
        0
      ],
      "name": "13_-_Default",
      "pbrMetallicRoughness": {
        "baseColorFactor": [
          1,
          1,
          1,
          1
        ],
        "baseColorTexture": {
          "index": 7,
          "texCoord": 0
        },
        "metallicFactor": 0,
        "roughnessFactor": 0.89297135959999996
      }
    },
    {
      "doubleSided": true,
      "emissiveFactor": [
        0,
        0,
        0
      ],
      "name": "08_-_Default",
      "pbrMetallicRoughness": {
        "baseColorFactor": [
          1,
          1,
          1,
          1
        ],
        "baseColorTexture": {
          "index": 6,
          "texCoord": 0
        },
        "metallicFactor": 0.37976371949999999,
        "roughnessFactor": 0.89297135959999996
      }
    },
    {
      "doubleSided": true,
      "emissiveFactor": [
        0,
        0,
        0
      ],
      "name": "02_-_Default",
      "normalTexture": {
        "index": 4,
        "scale": 0.33000000000000002,
        "texCoord": 0
      },
      "pbrMetallicRoughness": {
        "baseColorFactor": [
          1,
          1,
          1,
          1
        ],
        "baseColorTexture": {
          "index": 5,
          "texCoord": 0
        },
        "metallicFactor": 1,
        "roughnessFactor": 0.78487042679999997
      }
    },
    {
      "doubleSided": true,
      "emissiveFactor": [
        0,
        0,
        0
      ],
      "name": "07_-_Default",
      "pbrMetallicRoughness": {
        "baseColorFactor": [
          1,
          1,
          1,
          1
        ],
        "baseColorTexture": {
          "index": 2,
          "texCoord": 0
        },
        "metallicFactor": 0.80659298779999999,
        "roughnessFactor": 0.89297135959999996
      }
    }
  ],
  "meshes": [
    {
      "name": "Cylinder003_03 - Default_0",
      "primitives": [
        {
          "attributes": {
            "NORMAL": 1,
            "POSITION": 0,
            "TANGENT": 2,
            "TEXCOORD_0": 3
          },
          "indices": 4,
          "material": 0,
          "mode": 4
        }
      ]
    },
    {
      "name": "Cylinder003_09 - Default_0",
      "primitives": [
        {
          "attributes": {
            "NORMAL": 6,
            "POSITION": 5,
            "TANGENT": 7,
            "TEXCOORD_0": 8
          },
          "indices": 9,
          "material": 1,
          "mode": 4
        }
      ]
    },
    {
      "name": "Cylinder003_13 - Default_0",
      "primitives": [
        {
          "attributes": {
            "NORMAL": 11,
            "POSITION": 10,
            "TANGENT": 12,
            "TEXCOORD_0": 13
          },
          "indices": 14,
          "material": 2,
          "mode": 4
        }
      ]
    },
    {
      "name": "Cylinder003_08 - Default_0",
      "primitives": [
        {
          "attributes": {
            "NORMAL": 16,
            "POSITION": 15,
            "TANGENT": 17,
            "TEXCOORD_0": 18
          },
          "indices": 19,
          "material": 3,
          "mode": 4
        }
      ]
    },
    {
      "name": "Cylinder003_02 - Default_0",
      "primitives": [
        {
          "attributes": {
            "NORMAL": 21,
            "POSITION": 20,
            "TANGENT": 22,
            "TEXCOORD_0": 23
          },
          "indices": 24,
          "material": 4,
          "mode": 4
        }
      ]
    },
    {
      "name": "Cylinder003_07 - Default_0",
      "primitives": [
        {
          "attributes": {
            "NORMAL": 26,
            "POSITION": 25,
            "TANGENT": 27,
            "TEXCOORD_0": 28
          },
          "indices": 29,
          "material": 5,
          "mode": 4
        }
      ]
    }
  ],
  "nodes": [
    {
      "children": [
        1
      ],
      "name": "RootNode (gltf orientation matrix)",
      "rotation": [
        -0.70710678118654746,
        -0,
        -0,
        0.70710678118654757
      ]
    },
    {
      "children": [
        2
      ],
      "name": "RootNode (model correction matrix)"
    },
    {
      "children": [
        3
      ],
      "matrix": [
        1,
        0,
        0,
        0,
        0,
        0,
        1,
        0,
        0,
        -1,
        0,
        0,
        0,
        0,
        0,
        1
      ],
      "name": "Krabby Patty.FBX"
    },
    {
      "children": [
        4
      ],
      "name": "RootNode"
    },
    {
      "children": [
        5,
        6,
        7,
        8,
        9,
        10
      ],
      "matrix": [
        1,
        0,
        0,
        0,
        0,
        2.2204460492503131e-16,
        -1,
        0,
        0,
        1,
        2.2204460492503131e-16,
        0,
        0,
        0,
        0,
        1
      ],
      "name": "Cylinder003"
    },
    {
      "mesh": 0,
      "name": "Cylinder003_03 - Default_0"
    },
    {
      "mesh": 1,
      "name": "Cylinder003_09 - Default_0"
    },
    {
      "mesh": 2,
      "name": "Cylinder003_13 - Default_0"
    },
    {
      "mesh": 3,
      "name": "Cylinder003_08 - Default_0"
    },
    {
      "mesh": 4,
      "name": "Cylinder003_02 - Default_0"
    },
    {
      "mesh": 5,
      "name": "Cylinder003_07 - Default_0"
    }
  ],
  "samplers": [
    {
      "magFilter": 9729,
      "minFilter": 9987,
      "wrapS": 10497,
      "wrapT": 10497
    }
  ],
  "scene": 0,
  "scenes": [
    {
      "name": "OSG_Scene",
      "nodes": [
        0
      ]
    }
  ],
  "textures": [
    {
      "sampler": 0,
      "source": 0
    },
    {
      "sampler": 0,
      "source": 1
    },
    {
      "sampler": 0,
      "source": 2
    },
    {
      "sampler": 0,
      "source": 3
    },
    {
      "sampler": 0,
      "source": 4
    },
    {
      "sampler": 0,
      "source": 5
    },
    {
      "sampler": 0,
      "source": 6
    },
    {
      "sampler": 0,
      "source": 7
    }
  ]
}

