{
  "accessors": [
    {
      "bufferView": 2,
      "componentType": 5126,
      "count": 1033,
      "max": [
        81.085426330566406,
        81.085426330566406,
        81.085426330566406
      ],
      "min": [
        -81.085426330566406,
        -81.085426330566406,
        -81.085426330566406
      ],
      "type": "VEC3"
    },
    {
      "bufferView": 2,
      "byteOffset": 12396,
      "componentType": 5126,
      "count": 1033,
      "max": [
        1,
        1,
        1
      ],
      "min": [
        -1,
        -1,
        -1
      ],
      "type": "VEC3"
    },
    {
      "bufferView": 3,
      "componentType": 5126,
      "count": 1033,
      "max": [
        1,
        1,
        0.0353693887591362,
        1
      ],
      "min": [
        -1,
        -1,
        -0.035369616001844406,
        1
      ],
      "type": "VEC4"
    },
    {
      "bufferView": 1,
      "componentType": 5126,
      "count": 1033,
      "max": [
        1,
        1
      ],
      "min": [
        0,
        2.3841900542720396e-07
      ],
      "type": "VEC2"
    },
    {
      "bufferView": 0,
      "componentType": 5125,
      "count": 5544,
      "max": [
        1032
      ],
      "min": [
        0
      ],
      "type": "SCALAR"
    },
    {
      "bufferView": 2,
      "byteOffset": 24792,
      "componentType": 5126,
      "count": 1033,
      "max": [
        80.039817810058594,
        80.039817810058594,
        80.039817810058594
      ],
      "min": [
        -80.039817810058594,
        -80.039817810058594,
        -80.039817810058594
      ],
      "type": "VEC3"
    },
    {
      "bufferView": 2,
      "byteOffset": 37188,
      "componentType": 5126,
      "count": 1033,
      "max": [
        1,
        1,
        1
      ],
      "min": [
        -1,
        -1,
        -1
      ],
      "type": "VEC3"
    },
    {
      "bufferView": 3,
      "byteOffset": 16528,
      "componentType": 5126,
      "count": 1033,
      "max": [
        1,
        1,
        0.035369165241718292,
        1
      ],
      "min": [
        -1,
        -1,
        -0.035369638353586197,
        1
      ],
      "type": "VEC4"
    },
    {
      "bufferView": 1,
      "byteOffset": 8264,
      "componentType": 5126,
      "count": 1033,
      "max": [
        1,
        1
      ],
      "min": [
        0,
        2.3841900542720396e-07
      ],
      "type": "VEC2"
    },
    {
      "bufferView": 0,
      "byteOffset": 22176,
      "componentType": 5125,
      "count": 5544,
      "max": [
        1032
      ],
      "min": [
        0
      ],
      "type": "SCALAR"
    }
  ],
  "asset": {
    "extras": {
      "author": "Wilmer Osario (https://sketchfab.com/Wguayana)",
      "license": "CC-BY-4.0 (http://creativecommons.org/licenses/by/4.0/)",
      "source": "https://sketchfab.com/models/90ef7a003b7b4d1d9c5f038a562c686f",
      "title": "Simple Earth Planet"
    },
    "generator": "Sketchfab-3.20.7",
    "version": "2.0"
  },
  "bufferViews": [
    {
      "buffer": 0,
      "byteLength": 44352,
      "byteOffset": 0,
      "name": "floatBufferViews",
      "target": 34963
    },
    {
      "buffer": 0,
      "byteLength": 16528,
      "byteOffset": 44352,
      "byteStride": 8,
      "name": "floatBufferViews",
      "target": 34962
    },
    {
      "buffer": 0,
      "byteLength": 49584,
      "byteOffset": 60880,
      "byteStride": 12,
      "name": "floatBufferViews",
      "target": 34962
    },
    {
      "buffer": 0,
      "byteLength": 33056,
      "byteOffset": 110464,
      "byteStride": 16,
      "name": "floatBufferViews",
      "target": 34962
    }
  ],
  "buffers": [
    {
      "byteLength": 143520,
      "uri": "scene.bin"
    }
  ],
  "extensionsRequired": [
    "KHR_materials_pbrSpecularGlossiness"
  ],
  "extensionsUsed": [
    "KHR_materials_pbrSpecularGlossiness"
  ],
  "images": [
    {
      "uri": "textures/2_-_Default_diffuse.png"
    },
    {
      "uri": "textures/1_-_Default_diffuse.jpeg"
    },
    {
      "uri": "textures/1_-_Default_specularGlossiness.jpeg"
    }
  ],
  "materials": [
    {
      "doubleSided": false,
      "extensions": {
        "KHR_materials_pbrSpecularGlossiness": {
          "diffuseFactor": [
            1,
            1,
            1,
            1
          ],
          "diffuseTexture": {
            "index": 1,
            "texCoord": 0
          },
          "glossinessFactor": 0,
          "specularFactor": [
            0,
            0,
            0
          ],
          "specularGlossinessTexture": {
            "index": 2,
            "texCoord": 0
          }
        }
      },
      "name": "1_-_Default"
    },
    {
      "alphaMode": "BLEND",
      "doubleSided": false,
      "extensions": {
        "KHR_materials_pbrSpecularGlossiness": {
          "diffuseFactor": [
            1,
            1,
            1,
            1
          ],
          "diffuseTexture": {
            "index": 0,
            "texCoord": 0
          },
          "glossinessFactor": 0.65415396339999998,
          "specularFactor": [
            0.038300304899999998,
            0.038300304899999998,
            0.038300304899999998
          ]
        }
      },
      "name": "2_-_Default"
    }
  ],
  "meshes": [
    {
      "name": "_2_-_Default_1",
      "primitives": [
        {
          "attributes": {
            "NORMAL": 1,
            "POSITION": 0,
            "TANGENT": 2,
            "TEXCOORD_0": 3
          },
          "indices": 4,
          "material": 1,
          "mode": 4
        }
      ]
    },
    {
      "name": "_1_-_Default_1",
      "primitives": [
        {
          "attributes": {
            "NORMAL": 6,
            "POSITION": 5,
            "TANGENT": 7,
            "TEXCOORD_0": 8
          },
          "indices": 9,
          "material": 0,
          "mode": 4
        }
      ]
    }
  ],
  "nodes": [
    {
      "children": [
        1
      ],
      "name": "RootNode (gltf orientation matrix)",
      "rotation": [
        -0.70710678118654746,
        -0,
        -0,
        0.70710678118654757
      ]
    },
    {
      "children": [
        2
      ],
      "name": "RootNode (model correction matrix)"
    },
    {
      "children": [
        3,
        5,
        7
      ],
      "name": "Collada visual scene group"
    },
    {
      "children": [
        4
      ],
      "name": "Clouds"
    },
    {
      "mesh": 0,
      "name": "_2_-_Default_1"
    },
    {
      "children": [
        6
      ],
      "matrix": [
        1,
        0,
        0,
        0,
        0,
        1,
        0,
        0,
        0,
        0,
        1,
        0,
        0.40808111429214478,
        0.13687129318714142,
        0,
        1
      ],
      "name": "Earth"
    },
    {
      "mesh": 1,
      "name": "_1_-_Default_1"
    },
    {
      "children": [
        8
      ],
      "name": "EnvironmentAmbientLight"
    },
    {
      "name": "EnvironmentAmbientLight"
    }
  ],
  "samplers": [
    {
      "magFilter": 9729,
      "minFilter": 9987,
      "wrapS": 10497,
      "wrapT": 10497
    },
    {
      "magFilter": 9729,
      "minFilter": 9729,
      "wrapS": 10497,
      "wrapT": 10497
    }
  ],
  "scene": 0,
  "scenes": [
    {
      "name": "OSG_Scene",
      "nodes": [
        0
      ]
    }
  ],
  "textures": [
    {
      "sampler": 0,
      "source": 0
    },
    {
      "sampler": 1,
      "source": 1
    },
    {
      "sampler": 0,
      "source": 2
    }
  ]
}

